<svg width="302" height="178" viewBox="0 0 302 178" fill="none" xmlns="http://www.w3.org/2000/svg">
<path d="M75.063 70.7149H81.3094V102.397H75.063V70.7149Z" fill="white"/>
<path d="M88.2688 70.7149H93.8399L109.053 92.2493V70.7149H115.168V102.397H109.597L94.3839 80.8631V102.397H88.2688V70.7149Z" fill="white"/>
<path d="M126.536 101.253C124.716 100.24 123.29 98.8334 122.277 96.9951C121.264 95.1756 120.758 93.0559 120.758 90.6361V82.4951C120.758 80.0753 121.264 77.9557 122.277 76.1361C123.29 74.3166 124.697 72.8909 126.536 71.878C128.355 70.8651 130.456 70.3586 132.857 70.3586H137.659C140.041 70.3586 142.142 70.8651 143.981 71.878C145.8 72.8909 147.226 74.3166 148.239 76.1361C149.252 77.9557 149.758 80.0753 149.758 82.4951V90.6361C149.758 93.0559 149.252 95.1756 148.239 96.9951C147.226 98.8147 145.819 100.24 143.981 101.253C142.142 102.266 140.041 102.773 137.659 102.773H132.857C130.475 102.773 128.374 102.266 126.536 101.253ZM137.64 97.239C139.385 97.239 140.792 96.6012 141.88 95.3444C142.968 94.0876 143.493 92.4182 143.493 90.3735V82.7765C143.493 80.7318 142.949 79.0624 141.88 77.8056C140.81 76.5488 139.404 75.911 137.64 75.911H132.838C131.094 75.911 129.668 76.5488 128.599 77.8056C127.53 79.0624 126.986 80.7318 126.986 82.7765V90.3735C126.986 92.4182 127.53 94.0876 128.599 95.3444C129.668 96.6012 131.075 97.239 132.838 97.239H137.64Z" fill="white"/>
<path d="M162.72 99.5048L151.821 70.7299H158.331L166.659 94.4964H166.753L175.119 70.7299H181.591L169.417 102.412H166.472C164.727 102.412 163.47 101.456 162.72 99.5236V99.5048Z" fill="white"/>
<path d="M199.88 95.0255L187.387 94.9317L182.66 107.087H177.033L191.101 70.7149H193.915C195.885 70.7149 197.198 71.6153 197.892 73.4349L209.165 102.397H202.656L199.899 95.0255H199.88ZM189.694 89.7732H198.211L194.009 78.3683H193.971L189.713 89.7732H189.694Z" fill="white"/>
<path d="M227.398 102.77L226.629 104.496H227.08C228.28 104.496 229.255 104.834 229.968 105.528C230.681 106.222 231.056 107.122 231.056 108.248V109.148C231.056 110.536 230.512 111.643 229.424 112.468C228.336 113.294 226.911 113.706 225.129 113.706H220.739V109.992H224.622C225.166 109.992 225.598 109.898 225.935 109.692C226.273 109.504 226.442 109.242 226.442 108.942V108.266C226.442 108.004 226.31 107.779 226.029 107.61C225.766 107.441 225.391 107.366 224.941 107.366H221.959V105.021L222.915 102.752H222.821C220.495 102.752 218.451 102.245 216.687 101.251C214.924 100.257 213.555 98.8499 212.598 97.0116C211.642 95.192 211.154 93.0911 211.154 90.69V82.3615C211.154 79.9792 211.641 77.8783 212.617 76.04C213.592 74.2204 214.98 72.8136 216.781 71.8007C218.582 70.8065 220.645 70.3 223.009 70.3H227.811C230.081 70.3 232.069 70.7877 233.776 71.7444C235.502 72.7198 236.834 74.0517 237.79 75.7962C238.747 77.5407 239.216 79.5477 239.216 81.8362H233.063C233.063 80.0167 232.576 78.5723 231.619 77.4656C230.644 76.3589 229.387 75.8149 227.811 75.8149H223.009C221.321 75.8149 219.97 76.4339 218.938 77.6907C217.907 78.9475 217.4 80.5794 217.4 82.6053V90.39C217.4 92.4158 217.907 94.0478 218.901 95.3046C219.895 96.5614 221.208 97.1804 222.84 97.1804H227.736C229.33 97.1804 230.644 96.5613 231.656 95.3233C232.669 94.0853 233.176 92.4533 233.176 90.4275H239.329C239.329 92.866 238.841 95.0232 237.884 96.8803C236.928 98.7373 235.558 100.163 233.814 101.176C232.069 102.189 230.043 102.695 227.755 102.695H227.436L227.398 102.77Z" fill="white"/>
<path d="M249.889 95.0249L247.076 102.397H240.567L252.966 70.7144H255.78C257.749 70.7144 259.062 71.6148 259.756 73.4343L271.03 102.397H264.521L261.763 95.0249H249.889ZM256.849 67.5068C256.305 67.2066 255.723 66.7752 255.085 66.2312C254.335 65.5372 253.735 65.1995 253.322 65.1995H253.06C252.666 65.1995 252.347 65.4246 252.103 65.856C251.859 66.2875 251.747 66.869 251.747 67.6005H247.263C247.226 65.5747 247.714 63.9427 248.708 62.7047C249.702 61.4667 251.052 60.8477 252.741 60.8477H253.003C253.735 60.8477 254.354 60.9977 254.898 61.3166C255.442 61.6355 256.08 62.0857 256.793 62.6484C257.487 63.2862 257.993 63.6051 258.331 63.6051H258.612C258.968 63.6051 259.269 63.38 259.494 62.9486C259.719 62.5171 259.831 61.9356 259.831 61.204H264.315C264.315 63.2299 263.827 64.8619 262.87 66.0999C261.895 67.3379 260.6 67.9569 258.968 67.9569H258.706C258.012 67.9569 257.393 67.8069 256.849 67.5068ZM251.559 89.7726H260.075L255.873 78.3677H255.836L251.578 89.7726H251.559Z" fill="white"/>
<path d="M278.777 101.253C276.958 100.24 275.532 98.8334 274.519 96.9951C273.506 95.1756 273 93.0559 273 90.6361V82.4951C273 80.0753 273.506 77.9557 274.519 76.1361C275.532 74.3166 276.939 72.8909 278.777 71.878C280.597 70.8651 282.698 70.3586 285.099 70.3586H289.901C292.283 70.3586 294.384 70.8651 296.222 71.878C298.042 72.8909 299.467 74.3166 300.48 76.1361C301.493 77.9557 302 80.0753 302 82.4951V90.6361C302 93.0559 301.493 95.1756 300.48 96.9951C299.467 98.8147 298.061 100.24 296.222 101.253C294.384 102.266 292.283 102.773 289.901 102.773H285.099C282.716 102.773 280.615 102.266 278.777 101.253ZM289.882 97.239C291.626 97.239 293.033 96.6012 294.121 95.3444C295.209 94.0876 295.735 92.4182 295.735 90.3735V82.7765C295.735 80.7318 295.191 79.0624 294.121 77.8056C293.052 76.5488 291.645 75.911 289.882 75.911H285.08C283.335 75.911 281.91 76.5488 280.84 77.8056C279.771 79.0624 279.227 80.7318 279.227 82.7765V90.3735C279.227 92.4182 279.771 94.0876 280.84 95.3444C281.91 96.6012 283.317 97.239 285.08 97.239H289.882Z" fill="white"/>
<path d="M107.102 137.72C105.226 135.863 104.288 133.274 104.288 129.954H110.441C110.441 131.53 110.835 132.749 111.641 133.649C112.448 134.531 113.555 134.981 114.962 134.981H119.989C121.321 134.981 122.39 134.7 123.234 134.137C124.059 133.574 124.472 132.824 124.472 131.905V130.367C124.472 128.885 123.384 127.966 121.208 127.609L112.88 126.202C110.16 125.752 108.096 124.889 106.708 123.595C105.301 122.319 104.607 120.669 104.607 118.68V116.148C104.607 114.554 105.039 113.147 105.901 111.909C106.764 110.689 107.984 109.751 109.559 109.076C111.135 108.42 112.973 108.082 115.055 108.082H120.176C122.146 108.082 123.872 108.495 125.372 109.301C126.873 110.108 128.055 111.252 128.88 112.715C129.706 114.178 130.118 115.885 130.118 117.799H123.966C123.966 116.523 123.628 115.51 122.934 114.741C122.24 113.972 121.321 113.578 120.176 113.578H115.055C113.78 113.578 112.767 113.841 111.998 114.385C111.229 114.929 110.835 115.66 110.835 116.561V117.78C110.835 119.281 111.867 120.218 113.967 120.594L122.259 122.038C124.997 122.526 127.098 123.37 128.543 124.589C129.987 125.808 130.719 127.384 130.719 129.316V132.299C130.719 133.893 130.268 135.319 129.387 136.557C128.505 137.795 127.248 138.752 125.654 139.427C124.059 140.102 122.202 140.44 120.083 140.44H114.887C111.566 140.44 108.978 139.521 107.102 137.664V137.72Z" fill="white"/>
<path d="M141.786 132.764L138.972 140.136H132.463L144.862 108.453H147.676C149.646 108.453 150.959 109.354 151.653 111.173L162.926 140.136H156.417L153.66 132.764H141.786ZM143.455 127.512H151.972L147.77 116.107H147.732L143.474 127.512H143.455Z" fill="white"/>
<path d="M170.73 139.067C169.042 138.11 167.729 136.778 166.791 135.071C165.853 133.345 165.384 131.357 165.384 129.087V108.453H171.63V128.918C171.63 130.738 172.08 132.201 173.018 133.308C173.938 134.433 175.138 134.977 176.62 134.977H181.422C182.923 134.977 184.161 134.414 185.08 133.308C186.018 132.201 186.487 130.719 186.487 128.918V108.453H192.733V129.087C192.733 131.357 192.264 133.345 191.326 135.071C190.388 136.797 189.057 138.129 187.35 139.067C185.624 140.023 183.654 140.492 181.422 140.492H176.62C174.388 140.492 172.418 140.023 170.73 139.067Z" fill="white"/>
<path d="M199.374 138.954C198.567 138.166 198.154 137.134 198.154 135.878V108.453H213.273C215.693 108.453 217.813 108.903 219.632 109.804C221.452 110.704 222.878 111.999 223.891 113.649C224.904 115.3 225.41 117.232 225.41 119.389V128.262C225.41 132.145 224.397 135.109 222.371 137.116C220.345 139.123 217.381 140.117 213.461 140.117H202.562C201.268 140.117 200.218 139.723 199.392 138.935L199.374 138.954ZM213.273 134.602C215.206 134.602 216.669 134.039 217.663 132.933C218.657 131.826 219.164 130.175 219.164 127.999V119.671C219.164 117.945 218.601 116.576 217.494 115.525C216.369 114.475 214.905 113.968 213.105 113.968H204.42V134.602H213.292H213.273Z" fill="white"/>
<path d="M234.489 138.954C233.682 138.166 233.27 137.134 233.27 135.878V108.453H257.43V113.893H239.516V121.228H256.08V126.667H239.516V134.715H257.43V140.155H237.659C236.365 140.155 235.314 139.761 234.489 138.973V138.954Z" fill="white"/>
<g filter="url(#filter0_d_288_810)">
<path d="M64.84 74.8261L62.5891 79.5907L2 74.9949L6.97091 64.5279L51.8406 69.1987L51.9156 69.0486L19.8579 37.3474L24.8663 26.8053L63.0767 66.5351C65.6278 69.2362 66.2281 71.9936 64.8776 74.8261H64.84Z" fill="white"/>
<path d="M78.1208 110.692L82.8854 112.943L78.3834 173.55L67.8976 168.598L72.5121 123.728L72.3621 123.653L40.717 155.749L30.1561 150.759L69.8297 112.492C72.5309 109.941 75.2884 109.341 78.1208 110.673V110.692Z" fill="white"/>
<path d="M81.1597 61.0764L76.5639 62.7647L31.713 11.555L40.9421 8.17854L76.6577 48.5085H76.7327L76.5076 3.90169L87.1998 0L86.0743 54.2485C86.018 57.6249 84.386 59.9134 81.1784 61.0952L81.1597 61.0764Z" fill="white"/>
<path d="M62.983 95.929L64.5774 100.562L12.5984 144.531L9.39074 135.246L50.3212 100.225V100.15L5.71415 99.6056L2 88.8572L56.2112 90.9206C59.5877 91.0331 61.8387 92.7026 62.9642 95.9478L62.983 95.929Z" fill="white"/>
<path d="M95.6785 54.9988L99.205 0L109.822 4.82085L105.808 49.7277L105.958 49.8028L137.19 17.2575L147.751 22.0408L104.457 64.678L99.6552 62.502C96.804 61.2077 95.4722 58.7129 95.6785 54.9988Z" fill="white"/>
</g>
<defs>
<filter id="filter0_d_288_810" x="0.749456" y="0" width="148.253" height="177.302" filterUnits="userSpaceOnUse" color-interpolation-filters="sRGB">
<feFlood flood-opacity="0" result="BackgroundImageFix"/>
<feColorMatrix in="SourceAlpha" type="matrix" values="0 0 0 0 0 0 0 0 0 0 0 0 0 0 0 0 0 0 127 0" result="hardAlpha"/>
<feOffset dy="2.50109"/>
<feGaussianBlur stdDeviation="0.625272"/>
<feComposite in2="hardAlpha" operator="out"/>
<feColorMatrix type="matrix" values="0 0 0 0 0 0 0 0 0 0 0 0 0 0 0 0 0 0 0.16 0"/>
<feBlend mode="normal" in2="BackgroundImageFix" result="effect1_dropShadow_288_810"/>
<feBlend mode="normal" in="SourceGraphic" in2="effect1_dropShadow_288_810" result="shape"/>
</filter>
</defs>
</svg>
